<svg xmlns="http://www.w3.org/2000/svg" viewBox="0 0 255.226 255.226">
    <g fill="#fcefe6"><path d="M76.532 27.975l-7.405-5.244-.254-.191-.477-.191-5.403-2.574.159.381c-5.117-2.098-10.488-3.591-16.336-3.591C20.945 16.565 0 38.336 0 65.192s20.976 48.627 46.816 48.627c8.295 0 15.955-2.415 22.724-6.356-2.32 25.998-15.415 63.915-63.406 102.594-6.706 5.403-7.946 15.446-2.733 22.407 3.051 4.1 7.596 6.198 12.173 6.198 3.305 0 6.611-1.112 9.439-3.337 58.893-47.547 73.608-96.364 75.579-128.973 3.369-41.699-9.28-63.629-20.849-75.07l-3.211-3.307zM233.76 31.28l-3.242-3.305-7.374-5.244-.254-.191-.509-.191-5.403-2.574.159.381c-5.117-2.098-10.52-3.591-16.368-3.591-25.839 0-46.752 21.771-46.752 48.627s20.913 48.627 46.816 48.627c8.295 0 15.955-2.415 22.724-6.356-2.288 25.998-15.383 63.915-63.374 102.594-6.738 5.403-7.946 15.446-2.733 22.407 3.051 4.1 7.596 6.198 12.173 6.198 3.305 0 6.611-1.112 9.439-3.337 58.925-47.547 73.608-96.364 75.611-128.973 3.369-41.7-9.28-63.63-20.913-75.072z"/></g>
</svg>