<svg xmlns="http://www.w3.org/2000/svg">
    <symbol id="speaker-icon" viewBox="0 0 52.026 52.026">
        <path d="M28.404 3.413a3.029 3.029 0 0 0-3.09.044.929.929 0 0 0-.13.093l-13.55 11.463H1a1 1 0 0 0-1 1v19a1.002 1.002 0 0 0 1 1l10.61-.005 13.543 12.44c.05.046.104.086.161.12a3.055 3.055 0 0 0 1.582.446 3.07 3.07 0 0 0 1.508-.402A3.122 3.122 0 0 0 30 45.857V6.169a3.125 3.125 0 0 0-1.596-2.756zM28 45.857c0 .431-.217.81-.579 1.015a1.049 1.049 0 0 1-1 .026L13 34.569v-4.556a1 1 0 1 0-2 0v3.996l-9 .004v-17h9v4a1 1 0 1 0 2 0v-4.536l13.405-11.34c.461-.242.86-.07 1.016.018.362.205.579.584.579 1.014v39.688zM38.797 7.066a1.002 1.002 0 0 0-.643 1.895 17.48 17.48 0 0 1 11.872 16.553 17.492 17.492 0 0 1-11.849 16.554 1 1 0 0 0 .646 1.893 19.489 19.489 0 0 0 13.202-18.446A19.478 19.478 0 0 0 38.797 7.066z"/><path d="M43.026 25.513c0-5.972-4.009-11.302-9.749-12.962a1 1 0 0 0-.554 1.922c4.889 1.413 8.304 5.953 8.304 11.04s-3.415 9.627-8.304 11.04a1 1 0 0 0 .554 1.922c5.741-1.66 9.749-6.99 9.749-12.962z"/>
    </symbol>
    <symbol id="triangle-icon" viewBox="0 0 247.506 247.506">
        <path d="M19.028,247.506V0l209.449,123.759L19.028,247.506z"/>
    </symbol>
    <symbol id="user" viewBox="0 0 60 60">
        <path d="M48.014 42.889l-9.553-4.776A2.63 2.63 0 0 1 37 35.748v-3.381c.229-.28.47-.599.719-.951a22.886 22.886 0 0 0 2.954-5.799A3.968 3.968 0 0 0 43 22v-4c0-.963-.36-1.896-1-2.625v-5.319c.056-.55.276-3.824-2.092-6.525C37.854 1.188 34.521 0 30 0s-7.854 1.188-9.908 3.53C17.724 6.231 17.944 9.506 18 10.056v5.319c-.64.729-1 1.662-1 2.625v4c0 1.217.553 2.352 1.497 3.109.916 3.627 2.833 6.36 3.503 7.237v3.309c0 .968-.528 1.856-1.377 2.32l-8.921 4.866A9.018 9.018 0 0 0 7 50.762V54c0 4.746 15.045 6 23 6s23-1.254 23-6v-3.043a8.973 8.973 0 0 0-4.986-8.068zM51 54c0 1.357-7.412 4-21 4S9 55.357 9 54v-3.238a7.016 7.016 0 0 1 3.659-6.164l8.921-4.866A4.644 4.644 0 0 0 24 35.655v-4.019l-.233-.278c-.024-.029-2.475-2.994-3.41-7.065l-.091-.396-.341-.22A1.995 1.995 0 0 1 19 22v-4c0-.561.238-1.084.67-1.475l.33-.297V10l-.009-.131c-.003-.027-.343-2.799 1.605-5.021C23.253 2.958 26.081 2 30 2c3.905 0 6.727.951 8.386 2.828 1.947 2.201 1.625 5.017 1.623 5.041L40 16.228l.33.298c.432.39.67.913.67 1.474v4c0 .873-.572 1.637-1.422 1.899l-.498.153-.16.495a20.934 20.934 0 0 1-2.834 5.713c-.297.421-.586.794-.837 1.079l-.249.284v4.125c0 1.77.983 3.361 2.566 4.153l9.553 4.776A6.982 6.982 0 0 1 51 50.957V54z"/>
    </symbol>
    <symbol id="heart-icon" viewBox="0 0 510 510">
        <path d="M255 489.6l-35.7-35.7C86.7 336.6 0 257.55 0 160.65 0 81.6 61.2 20.4 140.25 20.4c43.35 0 86.7 20.4 114.75 53.55C283.05 40.8 326.4 20.4 369.75 20.4 448.8 20.4 510 81.6 510 160.65c0 96.9-86.7 175.95-219.3 293.25L255 489.6z"/>
    </symbol>
    <symbol id="search-icon" viewBox="0 0 451 451">
        <path d="M447.05 428l-109.6-109.6c29.4-33.8 47.2-77.9 47.2-126.1C384.65 86.2 298.35 0 192.35 0 86.25 0 .05 86.3.05 192.3s86.3 192.3 192.3 192.3c48.2 0 92.3-17.8 126.1-47.2L428.05 447c2.6 2.6 6.1 4 9.5 4s6.9-1.3 9.5-4c5.2-5.2 5.2-13.8 0-19zM26.95 192.3c0-91.2 74.2-165.3 165.3-165.3 91.2 0 165.3 74.2 165.3 165.3s-74.1 165.4-165.3 165.4c-91.1 0-165.3-74.2-165.3-165.4z"/>
    </symbol>
    <symbol id="close-icon" viewBox="0 0 94.926 94.926">
        <path d="M55.931 47.463L94.306 9.09a2.118 2.118 0 0 0 0-2.994L88.833.62a2.123 2.123 0 0 0-2.996 0L47.463 38.994 9.089.62c-.795-.795-2.202-.794-2.995 0L.622 6.096a2.117 2.117 0 0 0 0 2.994l38.374 38.373L.622 85.836a2.117 2.117 0 0 0 0 2.994l5.473 5.476a2.123 2.123 0 0 0 2.995 0l38.374-38.374 38.374 38.374c.397.396.937.62 1.498.62s1.101-.224 1.498-.62l5.473-5.476a2.118 2.118 0 0 0 0-2.994L55.931 47.463z"/>
    </symbol>
    <symbol id="check-icon" viewBox="0 0 363.025 363.024">
        <path d="M181.512 363.024C81.43 363.024 0 281.601 0 181.513 0 81.424 81.43 0 181.512 0c100.083 0 181.513 81.424 181.513 181.513 0 100.088-81.43 181.511-181.513 181.511zm0-351.314C87.88 11.71 11.71 87.886 11.71 181.513s76.17 169.802 169.802 169.802c93.633 0 169.803-76.175 169.803-169.802S275.145 11.71 181.512 11.71z" fill="#57c17f"/><path fill="#57c17f" d="M147.957 258.935l-64.889-64.889 8.28-8.279 56.609 56.608 123.214-123.209 8.28 8.279z"/>
    </symbol>
    <symbol id="arrow-down" viewBox="0 0 129 129">
        <path d="M121.3 34.6c-1.6-1.6-4.2-1.6-5.8 0l-51 51.1-51.1-51.1c-1.6-1.6-4.2-1.6-5.8 0-1.6 1.6-1.6 4.2 0 5.8l53.9 53.9c.8.8 1.8 1.2 2.9 1.2 1 0 2.1-.4 2.9-1.2l53.9-53.9c1.7-1.6 1.7-4.2.1-5.8z"/>
    </symbol>
    <symbol id="arrow-up" viewBox="0 0 284.929 284.929">
        <path d="M282.082 195.285L149.028 62.24c-1.901-1.903-4.088-2.856-6.562-2.856s-4.665.953-6.567 2.856L2.856 195.285C.95 197.191 0 199.378 0 201.853c0 2.474.953 4.664 2.856 6.566l14.272 14.271c1.903 1.903 4.093 2.854 6.567 2.854s4.664-.951 6.567-2.854l112.204-112.202 112.208 112.209c1.902 1.903 4.093 2.848 6.563 2.848 2.478 0 4.668-.951 6.57-2.848l14.274-14.277c1.902-1.902 2.847-4.093 2.847-6.566.001-2.476-.944-4.666-2.846-6.569z"/>
    </symbol>
    <symbol id="arrow-left" viewBox="0 0 284.935 284.936">
        <path d="M110.488 142.468L222.694 30.264c1.902-1.903 2.854-4.093 2.854-6.567s-.951-4.664-2.854-6.563L208.417 2.857C206.513.955 204.324 0 201.856 0c-2.475 0-4.664.955-6.567 2.857L62.24 135.9c-1.903 1.903-2.852 4.093-2.852 6.567 0 2.475.949 4.664 2.852 6.567l133.042 133.043c1.906 1.906 4.097 2.857 6.571 2.857 2.471 0 4.66-.951 6.563-2.857l14.277-14.267c1.902-1.903 2.851-4.094 2.851-6.57 0-2.472-.948-4.661-2.851-6.564L110.488 142.468z"/>
    </symbol>
    <symbol id="long-arrow-left" viewBox="0 0 512 512">
        <path d="M491.318 235.318H20.682C9.26 235.318 0 244.578 0 256c0 11.423 9.26 20.682 20.682 20.682h470.636c11.423 0 20.682-9.259 20.682-20.682 0-11.422-9.259-20.682-20.682-20.682z"/><path d="M49.932 256L211.795 94.136c8.077-8.077 8.077-21.172 0-29.249-8.077-8.076-21.172-8.076-29.249 0L6.058 241.375c-8.077 8.077-8.077 21.172 0 29.249l176.488 176.488a20.616 20.616 0 0 0 14.625 6.058 20.616 20.616 0 0 0 14.625-6.058c8.077-8.077 8.077-21.172 0-29.249L49.932 256z"/>
    </symbol>
    <symbol id="arrow-right" viewBox="0 0 284.935 284.936">
        <path d="M222.701 135.9L89.652 2.857C87.748.955 85.557 0 83.084 0c-2.474 0-4.664.955-6.567 2.857L62.244 17.133c-1.906 1.903-2.855 4.089-2.855 6.567 0 2.478.949 4.664 2.855 6.567l112.204 112.204L62.244 254.677c-1.906 1.903-2.855 4.093-2.855 6.564 0 2.477.949 4.667 2.855 6.57l14.274 14.271c1.903 1.905 4.093 2.854 6.567 2.854 2.473 0 4.663-.951 6.567-2.854l133.042-133.044c1.902-1.902 2.854-4.093 2.854-6.567s-.945-4.664-2.847-6.571z"/>
    </symbol>
    <symbol id="envelope" viewBox="0 0 483.3 483.3">
        <path d="M424.3 57.75H59.1c-32.6 0-59.1 26.5-59.1 59.1v249.6c0 32.6 26.5 59.1 59.1 59.1h365.1c32.6 0 59.1-26.5 59.1-59.1v-249.5c.1-32.6-26.4-59.2-59-59.2zm32.1 308.7c0 17.7-14.4 32.1-32.1 32.1H59.1c-17.7 0-32.1-14.4-32.1-32.1v-249.5c0-17.7 14.4-32.1 32.1-32.1h365.1c17.7 0 32.1 14.4 32.1 32.1v249.5h.1z"/><path d="M304.8 238.55l118.2-106c5.5-5 6-13.5 1-19.1-5-5.5-13.5-6-19.1-1l-163 146.3-31.8-28.4c-.1-.1-.2-.2-.2-.3-.7-.7-1.4-1.3-2.2-1.9L78.3 112.35c-5.6-5-14.1-4.5-19.1 1.1-5 5.6-4.5 14.1 1.1 19.1l119.6 106.9-119.1 111.5c-5.4 5.1-5.7 13.6-.6 19.1 2.7 2.8 6.3 4.3 9.9 4.3 3.3 0 6.6-1.2 9.2-3.6l120.9-113.1 32.8 29.3c2.6 2.3 5.8 3.4 9 3.4s6.5-1.2 9-3.5l33.7-30.2 120.2 114.2c2.6 2.5 6 3.7 9.3 3.7 3.6 0 7.1-1.4 9.8-4.2 5.1-5.4 4.9-14-.5-19.1l-118.7-112.7z"/>
    </symbol>
    <symbol id="pin" viewBox="0 0 54.757 54.757">
        <path d="M27.557 12c-3.859 0-7 3.141-7 7s3.141 7 7 7 7-3.141 7-7-3.141-7-7-7zm0 12c-2.757 0-5-2.243-5-5s2.243-5 5-5 5 2.243 5 5-2.243 5-5 5z"/><path d="M40.94 5.617A19.052 19.052 0 0 0 27.38 0a19.05 19.05 0 0 0-13.56 5.617c-6.703 6.702-7.536 19.312-1.804 26.952L27.38 54.757 42.721 32.6c5.755-7.671 4.922-20.281-1.781-26.983zm.159 25.814L27.38 51.243 13.639 31.4C8.44 24.468 9.185 13.08 15.235 7.031 18.479 3.787 22.792 2 27.38 2s8.901 1.787 12.146 5.031c6.05 6.049 6.795 17.437 1.573 24.4z"/>
    </symbol>
    <symbol id="pin-full" viewBox="0 0 54.757 54.757">
        <path d="M40.94,5.617C37.318,1.995,32.502,0,27.38,0c-5.123,0-9.938,1.995-13.56,5.617c-6.703,6.702-7.536,19.312-1.804,26.952 L27.38,54.757L42.721,32.6C48.476,24.929,47.643,12.319,40.94,5.617z M27.557,26c-3.859,0-7-3.141-7-7s3.141-7,7-7s7,3.141,7,7 S31.416,26,27.557,26z"/>
    </symbol>
    <symbol id="phone" viewBox="0 0 473.806 473.806">
        <path d="M374.456 293.506c-9.7-10.1-21.4-15.5-33.8-15.5-12.3 0-24.1 5.3-34.2 15.4l-31.6 31.5c-2.6-1.4-5.2-2.7-7.7-4-3.6-1.8-7-3.5-9.9-5.3-29.6-18.8-56.5-43.3-82.3-75-12.5-15.8-20.9-29.1-27-42.6 8.2-7.5 15.8-15.3 23.2-22.8 2.8-2.8 5.6-5.7 8.4-8.5 21-21 21-48.2 0-69.2l-27.3-27.3c-3.1-3.1-6.3-6.3-9.3-9.5-6-6.2-12.3-12.6-18.8-18.6-9.7-9.6-21.3-14.7-33.5-14.7s-24 5.1-34 14.7l-.2.2-34 34.3c-12.8 12.8-20.1 28.4-21.7 46.5-2.4 29.2 6.2 56.4 12.8 74.2 16.2 43.7 40.4 84.2 76.5 127.6 43.8 52.3 96.5 93.6 156.7 122.7 23 10.9 53.7 23.8 88 26 2.1.1 4.3.2 6.3.2 23.1 0 42.5-8.3 57.7-24.8.1-.2.3-.3.4-.5 5.2-6.3 11.2-12 17.5-18.1 4.3-4.1 8.7-8.4 13-12.9 9.9-10.3 15.1-22.3 15.1-34.6 0-12.4-5.3-24.3-15.4-34.3l-54.9-55.1zm35.8 105.3c-.1 0-.1.1 0 0-3.9 4.2-7.9 8-12.2 12.2-6.5 6.2-13.1 12.7-19.3 20-10.1 10.8-22 15.9-37.6 15.9-1.5 0-3.1 0-4.6-.1-29.7-1.9-57.3-13.5-78-23.4-56.6-27.4-106.3-66.3-147.6-115.6-34.1-41.1-56.9-79.1-72-119.9-9.3-24.9-12.7-44.3-11.2-62.6 1-11.7 5.5-21.4 13.8-29.7l34.1-34.1c4.9-4.6 10.1-7.1 15.2-7.1 6.3 0 11.4 3.8 14.6 7l.3.3c6.1 5.7 11.9 11.6 18 17.9 3.1 3.2 6.3 6.4 9.5 9.7l27.3 27.3c10.6 10.6 10.6 20.4 0 31-2.9 2.9-5.7 5.8-8.6 8.6-8.4 8.6-16.4 16.6-25.1 24.4-.2.2-.4.3-.5.5-8.6 8.6-7 17-5.2 22.7l.3.9c7.1 17.2 17.1 33.4 32.3 52.7l.1.1c27.6 34 56.7 60.5 88.8 80.8 4.1 2.6 8.3 4.7 12.3 6.7 3.6 1.8 7 3.5 9.9 5.3.4.2.8.5 1.2.7 3.4 1.7 6.6 2.5 9.9 2.5 8.3 0 13.5-5.2 15.2-6.9l34.2-34.2c3.4-3.4 8.8-7.5 15.1-7.5 6.2 0 11.3 3.9 14.4 7.3l.2.2 55.1 55.1c10.3 10.2 10.3 20.7.1 31.3zM256.056 112.706c26.2 4.4 50 16.8 69 35.8s31.3 42.8 35.8 69c1.1 6.6 6.8 11.2 13.3 11.2.8 0 1.5-.1 2.3-.2 7.4-1.2 12.3-8.2 11.1-15.6-5.4-31.7-20.4-60.6-43.3-83.5s-51.8-37.9-83.5-43.3c-7.4-1.2-14.3 3.7-15.6 11s3.5 14.4 10.9 15.6zM473.256 209.006c-8.9-52.2-33.5-99.7-71.3-137.5s-85.3-62.4-137.5-71.3c-7.3-1.3-14.2 3.7-15.5 11-1.2 7.4 3.7 14.3 11.1 15.6 46.6 7.9 89.1 30 122.9 63.7 33.8 33.8 55.8 76.3 63.7 122.9 1.1 6.6 6.8 11.2 13.3 11.2.8 0 1.5-.1 2.3-.2 7.3-1.1 12.3-8.1 11-15.4z"/>
    </symbol>
    <symbol id="linkedin-square" viewBox="0 0 455.731 455.731">
        <path fill="#006cac" d="M0 0h455.731v455.731H0z"/><g fill="#fff"><path d="M107.255 69.215c20.873.017 38.088 17.257 38.043 38.234-.05 21.965-18.278 38.52-38.3 38.043-20.308.411-38.155-16.551-38.151-38.188 0-20.985 17.282-38.105 38.408-38.089zM129.431 386.471H84.71c-5.804 0-10.509-4.705-10.509-10.509V185.18c0-5.804 4.705-10.509 10.509-10.509h44.721c5.804 0 10.509 4.705 10.509 10.509v190.783c-.001 5.803-4.705 10.508-10.509 10.508zM386.884 241.682c0-39.996-32.423-72.42-72.42-72.42h-11.47c-21.882 0-41.214 10.918-52.842 27.606a64.249 64.249 0 0 0-3.52 5.658c-.373-.056-.594-.085-.599-.075v-23.418a4.363 4.363 0 0 0-4.363-4.363h-55.795a4.363 4.363 0 0 0-4.363 4.363V382.11a4.363 4.363 0 0 0 4.361 4.363l57.011.014a4.363 4.363 0 0 0 4.364-4.363V264.801c0-20.28 16.175-37.119 36.454-37.348 10.352-.117 19.737 4.031 26.501 10.799 6.675 6.671 10.802 15.895 10.802 26.079v117.808a4.363 4.363 0 0 0 4.361 4.363l57.152.014a4.363 4.363 0 0 0 4.364-4.363V241.682z"/></g>
    </symbol>
    <symbol id="facebook" viewBox="0 0 96.123 96.123">
        <path d="M72.089.02L59.624 0C45.62 0 36.57 9.285 36.57 23.656v10.907H24.037a1.96 1.96 0 0 0-1.96 1.961v15.803a1.96 1.96 0 0 0 1.96 1.96H36.57v39.876a1.96 1.96 0 0 0 1.96 1.96h16.352a1.96 1.96 0 0 0 1.96-1.96V54.287h14.654a1.96 1.96 0 0 0 1.96-1.96l.006-15.803a1.963 1.963 0 0 0-1.961-1.961H56.842v-9.246c0-4.444 1.059-6.7 6.848-6.7l8.397-.003a1.96 1.96 0 0 0 1.959-1.96V1.98A1.96 1.96 0 0 0 72.089.02z"/>
    </symbol>
    <symbol id="linkedin" viewBox="0 0 430.117 430.117">
        <path d="M430.117 261.543V420.56h-92.188V272.193c0-37.271-13.334-62.707-46.703-62.707-25.473 0-40.632 17.142-47.301 33.724-2.432 5.928-3.058 14.179-3.058 22.477V420.56h-92.219s1.242-251.285 0-277.32h92.21v39.309c-.187.294-.43.611-.606.896h.606v-.896c12.251-18.869 34.13-45.824 83.102-45.824 60.673-.001 106.157 39.636 106.157 124.818zM52.183 9.558C20.635 9.558 0 30.251 0 57.463c0 26.619 20.038 47.94 50.959 47.94h.616c32.159 0 52.159-21.317 52.159-47.94-.606-27.212-20-47.905-51.551-47.905zM5.477 420.56h92.184V143.24H5.477v277.32z"/>
    </symbol>
    <symbol id="rent" viewBox="0 0 49 49">
        <path d="M45.713 9.41L36.526.22a.779.779 0 0 0-.542-.22H3.828a.765.765 0 0 0-.766.77v33.68h1.532V1.53h30.625v8.42a.771.771 0 0 0 .765.77h8.422v3.06h1.532V9.95a.761.761 0 0 0-.225-.54zm-8.963-.22V2.61l6.574 6.58H36.75zm7.656 9.18v25.27H4.594v-4.59H3.062v9.18a.765.765 0 0 0 .766.77h41.344a.765.765 0 0 0 .766-.77V18.37h-1.532zm0 29.1H4.594v-2.3h39.812v2.3zM13.016 4.59H8.422a.771.771 0 0 0-.766.77v4.59a.771.771 0 0 0 .766.77h4.594a.771.771 0 0 0 .765-.77V5.36a.771.771 0 0 0-.765-.77zm-.766 4.6H9.187V6.12h3.063v3.07zm3.062-3.83h10.719v1.53H15.312V5.36zm0 3.06h1.532v1.53h-1.532V8.42zm3.063 0h1.531v1.53h-1.531V8.42zm9.953 12.25h1.531v1.53h-1.531v-1.53zm.766-5.36a.765.765 0 0 0-.766.77v3.06h1.531v-2.3h3.828v-1.53h-4.593zm6.125 0H49v1.53H35.219v-1.53zm-13.24-2.07a.764.764 0 0 0-1.083 0l-3.828 3.83 1.083 1.08 2.521-2.52v8.87H22.2v-8.87l2.521 2.52 1.083-1.08zm-1.307 12.79H22.2v1.53h-1.531v-1.53zm0 3.06v6.89h-6.891v1.53h7.656a.763.763 0 0 0 .766-.76v-7.66h-1.531zM0 35.98h12.25v1.53H0v-1.53zm32.381-1.3l-2.522 2.52V23.73h-1.531V37.2l-2.521-2.52-1.083 1.08 3.828 3.83a.776.776 0 0 0 1.083 0l3.828-3.83z"/>
    </symbol>
    <symbol id="manage" viewBox="0 0 55 55">
        <path d="M38.59 44.3l-.86-1.72a.88.88 0 0 0-.43-.4l-5.71-2.47-.46-1.42a7.066 7.066 0 0 0 2.39-5.63v-6.88a.832.832 0 0 0-.26-.61 9.406 9.406 0 0 0-11.52 0 .832.832 0 0 0-.26.61v6.88a7.066 7.066 0 0 0 2.39 5.63l-.46 1.42-5.7 2.47a.84.84 0 0 0-.43.4l-.86 1.72a.86.86 0 0 0-.09.39V55h1.72V44.89l.62-1.26 5.18-2.24 2.79 2.79v3.08h1.72v-3.08l2.79-2.79 5.17 2.24.63 1.26V55h1.72V44.69a1.006 1.006 0 0 0-.08-.39zM23.2 26.18a7.967 7.967 0 0 1 8.6 0v3.77a.926.926 0 0 1-.86-.73.86.86 0 0 0-.86-.86h-5.16a.86.86 0 0 0-.86.86.926.926 0 0 1-.86.73v-3.77zm4.3 16.43l-2.44-2.44.33-1.01a6.2 6.2 0 0 0 4.22 0l.33 1.01zm0-4.8c-3.17 0-4.3-2.78-4.3-5.15v-.94a3.071 3.071 0 0 0 2.43-1.64h3.74a3.071 3.071 0 0 0 2.43 1.64v.94c0 2.37-1.13 5.15-4.3 5.15zM20.63 50.7h1.71V55h-1.71v-4.3zm12.03 0h1.71V55h-1.71v-4.3zm20.62-37.81H37.81v1.72h15.47v18.9h-8.59a.872.872 0 0 0-.61.26l-3.69 3.69v-3.09a.86.86 0 0 0-.86-.86h-4.3v1.72h3.44v4.3a.85.85 0 0 0 .53.79.784.784 0 0 0 .33.07.862.862 0 0 0 .61-.25l4.9-4.91h8.24A1.72 1.72 0 0 0 55 33.51v-18.9a1.72 1.72 0 0 0-1.72-1.72zM34.37 0H1.72A1.72 1.72 0 0 0 0 1.72v18.9a1.72 1.72 0 0 0 1.72 1.72h5.66l4.9 4.91a.862.862 0 0 0 .61.25.754.754 0 0 0 .33-.07.85.85 0 0 0 .53-.79v-4.3h20.62a1.72 1.72 0 0 0 1.72-1.72V1.72A1.72 1.72 0 0 0 34.37 0zm0 20.62H12.89a.866.866 0 0 0-.86.86v3.09l-3.69-3.69a.832.832 0 0 0-.61-.26H1.72V1.72h32.65v18.9zM31.8 3.44H4.3a.854.854 0 0 0-.86.86v3.43a.854.854 0 0 0 .86.86h27.5a.86.86 0 0 0 .86-.86V4.3a.86.86 0 0 0-.86-.86zm-.86 3.43H5.16V5.15h25.78v1.72zM6.88 10.31h22.34v1.72H6.88v-1.72zm24.06 0h1.72v1.72h-1.72v-1.72zm-27.5 3.44h29.22v1.72H3.44v-1.72zm0 3.44h29.22v1.72H3.44v-1.72zm47.26-.86H38.67v1.72h11.17v1.71H38.67v1.72H50.7a.854.854 0 0 0 .86-.86v-3.43a.854.854 0 0 0-.86-.86zm-.86 6.87h1.72v1.72h-1.72V23.2zm-11.17 0h9.46v1.72h-9.46V23.2zm-2.58 3.44h15.47v1.72H36.09v-1.72zm0 3.44h15.47v1.72H36.09v-1.72zm-23.2-.86a2.575 2.575 0 1 0 2.58 2.58 2.58 2.58 0 0 0-2.58-2.58zm0 3.44a.86.86 0 1 1 0-1.72.86.86 0 0 1 0 1.72zm30.08 8.59a2.575 2.575 0 1 0 2.58 2.58 2.573 2.573 0 0 0-2.58-2.58zm0 3.44a.86.86 0 1 1 .86-.86.86.86 0 0 1-.86.86z"/>
    </symbol>
    <symbol id="reverse" viewBox="0 0 470.72 470.72">
        <path fill="#a79ec6" d="M193.76,337.6l-48,48c-9.937,9.903-17.583,21.864-22.4,35.04V43.36h-32v376.96c-4.79-13.105-12.38-25.008-22.24-34.88 l-48-48L0,358.72l107.36,107.2l107.36-107.36L193.76,337.6z"/><path fill="#2c2543" d="M363.36,4.8L256,112l20.96,20.96l49.92-49.92c8.951-9.056,15.782-19.985,20-32v376.32h32V50.72 c4.311,12.044,11.253,22.976,20.32,32l49.92,49.92l21.6-20.64L363.36,4.8z"/>
    </symbol>
    <symbol id="grid-layout" viewBox="0 0 26.995 26.995">
        <path d="M0,11.808h11.811V0.001H0V11.808z M15.184,0.001v11.807h11.811V0.001H15.184z M15.184,26.993h11.811V15.185H15.184V26.993z M0,26.993h11.811V15.185H0V26.993z"/>
    </symbol>
    <symbol id="airplain" viewBox="0 0 60.062 60.062">
        <path d="M60.046 11.196c.004-.024.011-.048.013-.072a1.054 1.054 0 0 0-.01-.224c-.002-.019.001-.037-.002-.056a1.003 1.003 0 0 0-.1-.289c-.008-.016-.019-.031-.028-.047-.002-.002-.002-.005-.003-.008-.001-.002-.004-.003-.005-.006l-.02-.033a.987.987 0 0 0-.221-.23c-.019-.014-.041-.022-.061-.035a.959.959 0 0 0-.236-.116c-.037-.012-.074-.018-.112-.025a.966.966 0 0 0-.34-.011c-.026.004-.051 0-.077.006L.798 22.046a1 1 0 0 0-.265 1.864l16.632 8.773 2.917 16.187c-.002.012.001.025 0 .037a.94.94 0 0 0 .019.354c.023.095.06.184.11.268.01.016.01.035.021.051.003.005.008.009.012.013.013.019.031.034.046.053.047.058.096.111.152.156.009.007.015.018.025.025.015.011.032.014.047.024.061.04.124.073.191.099.027.01.052.022.08.03.09.026.183.044.277.044h.003l.012-.002a.993.993 0 0 0 .763-.313l11.079-7.386 11.6 7.54a1.005 1.005 0 0 0 .86.11 1 1 0 0 0 .623-.604L59.998 11.38a.915.915 0 0 0 .033-.105c.004-.015.005-.03.008-.044l.007-.035zm-11.582 6.383L24.471 35.22c-.039.029-.07.065-.104.099-.013.012-.026.022-.037.035a1.01 1.01 0 0 0-.059.071c-.018.024-.032.049-.048.074-.037.06-.068.122-.092.188-.005.013-.013.023-.017.036-.001.004-.005.006-.006.01l-2.75 8.937-2.179-12.091 29.285-15zM22.908 46.594l2.726-9.004 4.244 2.759 1.214.789-4.124 2.749-4.06 2.707zm29.136-33.096L18.071 30.899l-14.14-7.458 48.113-9.943zm-7.485 34.006L29.154 37.492l-2.333-1.517 30.154-22.172-12.416 33.701z"/>
    </symbol>
    <symbol id="plus" viewBox="0 0 375 375">
        <path d="M357 204H204v153h-51V204H0v-51h153V0h51v153h153v51z"/>
    </symbol>
    <symbol id="pdf" viewBox="0 0 40 40">
        <polygon fill="none" points="0,0 40,0 40,40 0,40 "/><path fill="currentColor" d="M33.33 3.33l-20 0c-1.83,0 -3.33,1.5 -3.33,3.34l0 20c0,1.83 1.5,3.33 3.33,3.33l20 0c1.84,0 3.34,-1.5 3.34,-3.33l0 -20c0,-1.84 -1.5,-3.34 -3.34,-3.34l0 0zm-14.16 12.5c0,1.39 -1.12,2.5 -2.5,2.5l-1.67 0 0 3.34 -2.5 0 0 -10 4.17 0c1.38,0 2.5,1.11 2.5,2.5l0 1.66 0 0zm8.33 3.34c0,1.38 -1.12,2.5 -2.5,2.5l-4.17 0 0 -10 4.17 0c1.38,0 2.5,1.11 2.5,2.5l0 5 0 0zm6.67 -5l-2.5 0 0 1.66 2.5 0 0 2.5 -2.5 0 0 3.34 -2.5 0 0 -10 5 0 0 2.5zm-19.17 1.66l1.67 0 0 -1.66 -1.67 0 0 1.66 0 0zm-8.33 -5.83l-3.34 0 0 23.33c0,1.84 1.5,3.34 3.34,3.34l23.33 0 0 -3.34 -23.33 0 0 -23.33zm16.66 9.17l1.67 0 0 -5 -1.67 0 0 5 0 0z"/>
    </symbol>
</svg>
